<svg xmlns="http://www.w3.org/2000/svg" version="1.1" xmlns:xlink="http://www.w3.org/1999/xlink" xmlns:svgjs="http://svgjs.dev/svgjs" width="1440" height="560" preserveAspectRatio="none" viewBox="0 0 1440 560"><g mask="url(&quot;#SvgjsMask1063&quot;)" fill="none"><rect width="1440" height="560" x="0" y="0" fill="rgba(218, 243, 251, 1)"></rect><path d="M0,562.687C122.502,566.705,260.675,632.029,360.249,560.559C460.259,488.776,441.544,336.036,479.112,218.803C511.556,117.559,571.263,24.81,565.959,-81.373C560.374,-193.187,509.738,-294.964,448.759,-388.852C380.161,-494.471,316.878,-635.382,192.658,-656.133C66.576,-677.195,-30.407,-547.866,-143.214,-487.742C-230.581,-441.177,-318.932,-405.475,-395.466,-342.674C-485.669,-268.656,-586.537,-199.448,-627.635,-90.24C-673.109,30.596,-686.211,171.449,-633.259,289.2C-580.219,407.147,-464.102,486.144,-345.377,537.418C-237.213,584.131,-117.757,558.825,0,562.687" fill="#abe4f6"></path><path d="M1440 1178.2350000000001C1560.757 1183.588 1697.57 1180.94 1786.3029999999999 1098.858 1873.585 1018.1179999999999 1854.2060000000001 878.498 1887.434 764.336 1915.047 669.465 1973.746 582.93 1965.12 484.499 1956.26 383.399 1892.801 300.266 1839.213 214.07999999999998 1775.855 112.18099999999998 1736.4180000000001-24.35699999999997 1623.498-64.93600000000004 1510.528-105.53300000000002 1395.565-17.197000000000003 1279.354 12.890999999999963 1158.463 44.19100000000003 1001.6949999999999 15.399000000000001 926.922 115.41500000000002 851.418 216.409 922.42 359.98699999999997 925.622 486.044 928.223 588.434 912.645 689.014 943.969 786.53 978.2149999999999 893.142 1025.001 999.611 1112.8809999999999 1069.008 1204.965 1141.725 1322.781 1173.039 1440 1178.2350000000001" fill="#ffffff"></path></g><defs><mask id="SvgjsMask1063"><rect width="1440" height="560" fill="#ffffff"></rect></mask></defs></svg>